<svg width="129" height="35" viewBox="0 0 129 35" fill="none" xmlns="http://www.w3.org/2000/svg">
<path d="M0.607375 8.464C0.607375 18.064 10.9274 19.36 10.9274 26.272C10.9274 28.672 9.87138 29.536 8.19138 29.536C6.51138 29.536 5.45538 28.672 5.45538 26.272V23.872H0.463375V25.936C0.463375 31.312 3.15138 34.384 8.33538 34.384C13.5194 34.384 16.2074 31.312 16.2074 25.936C16.2074 16.336 5.88738 15.04 5.88738 8.128C5.88738 5.728 6.84738 4.816 8.52738 4.816C10.2074 4.816 11.1674 5.728 11.1674 8.128V9.52H16.1594V8.464C16.1594 3.088 13.5194 0.0159998 8.38338 0.0159998C3.24738 0.0159998 0.607375 3.088 0.607375 8.464ZM24.5125 19.6H30.5125V34H35.8885V0.399998H30.5125V14.8H24.5125V0.399998H19.2325V34H24.5125V19.6ZM44.5649 8.128C44.5649 5.728 45.6209 4.816 47.3009 4.816C48.9809 4.816 50.0369 5.728 50.0369 8.128V26.272C50.0369 28.672 48.9809 29.584 47.3009 29.584C45.6209 29.584 44.5649 28.672 44.5649 26.272V8.128ZM39.2849 25.936C39.2849 31.312 42.1169 34.384 47.3009 34.384C52.4849 34.384 55.3169 31.312 55.3169 25.936V8.464C55.3169 3.088 52.4849 0.0159998 47.3009 0.0159998C42.1169 0.0159998 39.2849 3.088 39.2849 8.464V25.936ZM66.5241 0.399998H58.7481V34H64.0281V21.376H66.5241C71.8041 21.376 74.3961 18.448 74.3961 13.072V8.704C74.3961 3.328 71.8041 0.399998 66.5241 0.399998ZM66.5241 5.2C68.2041 5.2 69.1161 5.968 69.1161 8.368V13.408C69.1161 15.808 68.2041 16.576 66.5241 16.576H64.0281V5.2H66.5241ZM84.6179 0.399998H76.8419V34H82.1219V21.376H84.6179C89.8979 21.376 92.4899 18.448 92.4899 13.072V8.704C92.4899 3.328 89.8979 0.399998 84.6179 0.399998ZM84.6179 5.2C86.2979 5.2 87.2099 5.968 87.2099 8.368V13.408C87.2099 15.808 86.2979 16.576 84.6179 16.576H82.1219V5.2H84.6179ZM106.038 0.399998H98.3103L92.9343 34H97.7823L98.6943 27.904H105.174L106.086 34H111.414L106.038 0.399998ZM101.91 6.352L104.454 23.344H99.3663L101.91 6.352ZM116.473 34H121.753V22.864L128.425 0.399998H123.385L119.353 15.712L115.321 0.399998H109.801L116.473 22.864V34Z" fill="white"/>
</svg>
